<svg xmlns="http://www.w3.org/2000/svg" xmlns:xlink="http://www.w3.org/1999/xlink" width="500" zoomAndPan="magnify" viewBox="0 0 375 374.999991" height="500" preserveAspectRatio="xMidYMid meet" version="1.0"><defs><g/><clipPath id="cb08c18c12"><path d="M 40.492188 145 L 115 145 L 115 214.46875 L 40.492188 214.46875 Z M 40.492188 145 " clip-rule="nonzero"/></clipPath><clipPath id="f0d1da94c4"><path d="M 89.257812 215.613281 L 100.269531 215.613281 L 100.269531 226.621094 L 89.257812 226.621094 Z M 89.257812 215.613281 " clip-rule="nonzero"/></clipPath><clipPath id="f467179484"><path d="M 94.765625 215.613281 C 91.722656 215.613281 89.257812 218.078125 89.257812 221.117188 C 89.257812 224.15625 91.722656 226.621094 94.765625 226.621094 C 97.804688 226.621094 100.269531 224.15625 100.269531 221.117188 C 100.269531 218.078125 97.804688 215.613281 94.765625 215.613281 " clip-rule="nonzero"/></clipPath><clipPath id="fe823edacc"><path d="M 56.21875 215.613281 L 67.230469 215.613281 L 67.230469 226.621094 L 56.21875 226.621094 Z M 56.21875 215.613281 " clip-rule="nonzero"/></clipPath><clipPath id="dc8cf13f6a"><path d="M 61.726562 215.613281 C 58.683594 215.613281 56.21875 218.078125 56.21875 221.117188 C 56.21875 224.15625 58.683594 226.621094 61.726562 226.621094 C 64.765625 226.621094 67.230469 224.15625 67.230469 221.117188 C 67.230469 218.078125 64.765625 215.613281 61.726562 215.613281 " clip-rule="nonzero"/></clipPath></defs><g clip-path="url(#cb08c18c12)"><path fill="#ff0056" d="M 106.085938 155.359375 L 58.433594 155.359375 L 57.714844 151.984375 C 56.851562 147.984375 53.253906 145.085938 49.152344 145.085938 L 44.089844 145.085938 C 42.101562 145.085938 40.492188 146.6875 40.492188 148.675781 C 40.492188 150.640625 42.101562 152.269531 44.089844 152.269531 L 49.152344 152.269531 C 49.871094 152.269531 50.519531 152.773438 50.6875 153.492188 L 59.894531 196.410156 L 57.210938 199.09375 C 54.691406 201.605469 53.949219 205.34375 55.316406 208.625 C 56.65625 211.90625 59.847656 214.015625 63.398438 214.015625 L 96.46875 214.015625 C 98.460938 214.015625 100.066406 212.410156 100.066406 210.421875 C 100.066406 208.457031 98.460938 206.828125 96.46875 206.828125 L 63.398438 206.828125 C 62.484375 206.828125 62.101562 206.230469 61.957031 205.871094 C 61.816406 205.511719 61.648438 204.816406 62.292969 204.195312 L 65.316406 201.152344 L 98.53125 201.152344 C 102.488281 201.152344 105.96875 198.492188 106.972656 194.660156 L 114.527344 166.351562 C 115.25 163.71875 114.695312 160.964844 113.019531 158.785156 C 111.363281 156.605469 108.820312 155.359375 106.085938 155.359375 Z M 106.085938 155.359375 " fill-opacity="1" fill-rule="nonzero"/></g><g clip-path="url(#f0d1da94c4)"><g clip-path="url(#f467179484)"><path fill="#ff0056" d="M 89.257812 215.613281 L 100.269531 215.613281 L 100.269531 226.621094 L 89.257812 226.621094 Z M 89.257812 215.613281 " fill-opacity="1" fill-rule="nonzero"/></g></g><g clip-path="url(#fe823edacc)"><g clip-path="url(#dc8cf13f6a)"><path fill="#ff0056" d="M 56.21875 215.613281 L 67.230469 215.613281 L 67.230469 226.621094 L 56.21875 226.621094 Z M 56.21875 215.613281 " fill-opacity="1" fill-rule="nonzero"/></g></g><g fill="#171717" fill-opacity="1"><g transform="translate(115.362727, 200.013371)"><g><path d="M 17.171875 0.546875 C 14.398438 0.546875 11.914062 0.0507812 9.71875 -0.9375 C 7.519531 -1.9375 5.773438 -3.289062 4.484375 -5 C 3.203125 -6.71875 2.503906 -8.617188 2.390625 -10.703125 L 11 -10.703125 C 11.164062 -9.390625 11.804688 -8.304688 12.921875 -7.453125 C 14.046875 -6.597656 15.441406 -6.171875 17.109375 -6.171875 C 18.742188 -6.171875 20.019531 -6.492188 20.9375 -7.140625 C 21.851562 -7.796875 22.3125 -8.632812 22.3125 -9.65625 C 22.3125 -10.757812 21.75 -11.582031 20.625 -12.125 C 19.507812 -12.675781 17.726562 -13.28125 15.28125 -13.9375 C 12.75 -14.550781 10.675781 -15.179688 9.0625 -15.828125 C 7.457031 -16.484375 6.070312 -17.484375 4.90625 -18.828125 C 3.75 -20.171875 3.171875 -21.984375 3.171875 -24.265625 C 3.171875 -26.140625 3.710938 -27.847656 4.796875 -29.390625 C 5.878906 -30.941406 7.425781 -32.164062 9.4375 -33.0625 C 11.457031 -33.957031 13.832031 -34.40625 16.5625 -34.40625 C 20.59375 -34.40625 23.8125 -33.394531 26.21875 -31.375 C 28.625 -29.363281 29.953125 -26.648438 30.203125 -23.234375 L 22 -23.234375 C 21.882812 -24.578125 21.328125 -25.644531 20.328125 -26.4375 C 19.328125 -27.226562 17.992188 -27.625 16.328125 -27.625 C 14.773438 -27.625 13.578125 -27.335938 12.734375 -26.765625 C 11.898438 -26.203125 11.484375 -25.410156 11.484375 -24.390625 C 11.484375 -23.242188 12.054688 -22.375 13.203125 -21.78125 C 14.347656 -21.195312 16.117188 -20.597656 18.515625 -19.984375 C 20.960938 -19.378906 22.976562 -18.75 24.5625 -18.09375 C 26.15625 -17.4375 27.53125 -16.425781 28.6875 -15.0625 C 29.851562 -13.695312 30.457031 -11.894531 30.5 -9.65625 C 30.5 -7.695312 29.957031 -5.941406 28.875 -4.390625 C 27.800781 -2.847656 26.253906 -1.640625 24.234375 -0.765625 C 22.210938 0.109375 19.859375 0.546875 17.171875 0.546875 Z M 17.171875 0.546875 "/></g></g></g><g fill="#171717" fill-opacity="1"><g transform="translate(146.230358, 200.013371)"><g><path d="M 36.1875 -33.859375 L 36.1875 0 L 27.5625 0 L 27.5625 -4.28125 C 26.46875 -2.8125 25.03125 -1.660156 23.25 -0.828125 C 21.476562 0.00390625 19.554688 0.421875 17.484375 0.421875 C 14.835938 0.421875 12.492188 -0.132812 10.453125 -1.25 C 8.410156 -2.375 6.804688 -4.023438 5.640625 -6.203125 C 4.484375 -8.378906 3.90625 -10.976562 3.90625 -14 L 3.90625 -33.859375 L 12.46875 -33.859375 L 12.46875 -15.21875 C 12.46875 -12.53125 13.140625 -10.460938 14.484375 -9.015625 C 15.828125 -7.566406 17.660156 -6.84375 19.984375 -6.84375 C 22.347656 -6.84375 24.203125 -7.566406 25.546875 -9.015625 C 26.890625 -10.460938 27.5625 -12.53125 27.5625 -15.21875 L 27.5625 -33.859375 Z M 36.1875 -33.859375 "/></g></g></g><g fill="#171717" fill-opacity="1"><g transform="translate(184.188497, 200.013371)"><g><path d="M 12.78125 -28.96875 C 13.875 -30.519531 15.390625 -31.8125 17.328125 -32.84375 C 19.265625 -33.882812 21.476562 -34.40625 23.96875 -34.40625 C 26.851562 -34.40625 29.46875 -33.691406 31.8125 -32.265625 C 34.15625 -30.847656 36.007812 -28.820312 37.375 -26.1875 C 38.738281 -23.5625 39.421875 -20.515625 39.421875 -17.046875 C 39.421875 -13.585938 38.738281 -10.519531 37.375 -7.84375 C 36.007812 -5.175781 34.15625 -3.109375 31.8125 -1.640625 C 29.46875 -0.179688 26.851562 0.546875 23.96875 0.546875 C 21.476562 0.546875 19.285156 0.0390625 17.390625 -0.96875 C 15.492188 -1.988281 13.957031 -3.273438 12.78125 -4.828125 L 12.78125 16.140625 L 4.21875 16.140625 L 4.21875 -33.859375 L 12.78125 -33.859375 Z M 30.6875 -17.046875 C 30.6875 -19.085938 30.265625 -20.851562 29.421875 -22.34375 C 28.585938 -23.832031 27.488281 -24.960938 26.125 -25.734375 C 24.757812 -26.503906 23.285156 -26.890625 21.703125 -26.890625 C 20.148438 -26.890625 18.691406 -26.492188 17.328125 -25.703125 C 15.960938 -24.910156 14.863281 -23.757812 14.03125 -22.25 C 13.195312 -20.738281 12.78125 -18.96875 12.78125 -16.9375 C 12.78125 -14.894531 13.195312 -13.117188 14.03125 -11.609375 C 14.863281 -10.109375 15.960938 -8.957031 17.328125 -8.15625 C 18.691406 -7.363281 20.148438 -6.96875 21.703125 -6.96875 C 23.285156 -6.96875 24.757812 -7.375 26.125 -8.1875 C 27.488281 -9 28.585938 -10.160156 29.421875 -11.671875 C 30.265625 -13.179688 30.6875 -14.972656 30.6875 -17.046875 Z M 30.6875 -17.046875 "/></g></g></g><g fill="#171717" fill-opacity="1"><g transform="translate(223.185759, 200.013371)"><g><path d="M 35.703125 -17.671875 C 35.703125 -16.441406 35.617188 -15.335938 35.453125 -14.359375 L 10.703125 -14.359375 C 10.898438 -11.921875 11.753906 -10.007812 13.265625 -8.625 C 14.773438 -7.238281 16.628906 -6.546875 18.828125 -6.546875 C 22.003906 -6.546875 24.265625 -7.910156 25.609375 -10.640625 L 34.84375 -10.640625 C 33.863281 -7.378906 31.988281 -4.695312 29.21875 -2.59375 C 26.445312 -0.5 23.046875 0.546875 19.015625 0.546875 C 15.753906 0.546875 12.828125 -0.175781 10.234375 -1.625 C 7.648438 -3.070312 5.632812 -5.117188 4.1875 -7.765625 C 2.738281 -10.410156 2.015625 -13.46875 2.015625 -16.9375 C 2.015625 -20.4375 2.726562 -23.507812 4.15625 -26.15625 C 5.582031 -28.8125 7.578125 -30.847656 10.140625 -32.265625 C 12.710938 -33.691406 15.671875 -34.40625 19.015625 -34.40625 C 22.234375 -34.40625 25.113281 -33.710938 27.65625 -32.328125 C 30.207031 -30.941406 32.1875 -28.972656 33.59375 -26.421875 C 35 -23.878906 35.703125 -20.960938 35.703125 -17.671875 Z M 26.828125 -20.109375 C 26.785156 -22.304688 25.988281 -24.066406 24.4375 -25.390625 C 22.894531 -26.722656 21.003906 -27.390625 18.765625 -27.390625 C 16.648438 -27.390625 14.867188 -26.742188 13.421875 -25.453125 C 11.972656 -24.171875 11.085938 -22.390625 10.765625 -20.109375 Z M 26.828125 -20.109375 "/></g></g></g><g fill="#171717" fill-opacity="1"><g transform="translate(258.4544, 200.013371)"><g><path d="M 12.78125 -28.609375 C 13.875 -30.398438 15.304688 -31.804688 17.078125 -32.828125 C 18.859375 -33.847656 20.890625 -34.359375 23.171875 -34.359375 L 23.171875 -25.359375 L 20.90625 -25.359375 C 18.21875 -25.359375 16.191406 -24.726562 14.828125 -23.46875 C 13.460938 -22.207031 12.78125 -20.007812 12.78125 -16.875 L 12.78125 0 L 4.21875 0 L 4.21875 -33.859375 L 12.78125 -33.859375 Z M 12.78125 -28.609375 "/></g></g></g><g fill="#171717" fill-opacity="1"><g transform="translate(280.703406, 200.013371)"><g><path d="M 33.1875 -37.15625 L 13.390625 -37.15625 L 13.390625 -26.71875 C 14.242188 -27.769531 15.460938 -28.628906 17.046875 -29.296875 C 18.640625 -29.972656 20.332031 -30.3125 22.125 -30.3125 C 25.382812 -30.3125 28.050781 -29.597656 30.125 -28.171875 C 32.207031 -26.753906 33.71875 -24.929688 34.65625 -22.703125 C 35.59375 -20.484375 36.0625 -18.113281 36.0625 -15.59375 C 36.0625 -10.90625 34.726562 -7.132812 32.0625 -4.28125 C 29.394531 -1.425781 25.59375 0 20.65625 0 C 16.007812 0 12.300781 -1.160156 9.53125 -3.484375 C 6.757812 -5.804688 5.191406 -8.84375 4.828125 -12.59375 L 13.140625 -12.59375 C 13.503906 -10.957031 14.328125 -9.648438 15.609375 -8.671875 C 16.898438 -7.703125 18.539062 -7.21875 20.53125 -7.21875 C 22.9375 -7.21875 24.75 -7.96875 25.96875 -9.46875 C 27.195312 -10.976562 27.8125 -12.976562 27.8125 -15.46875 C 27.8125 -17.988281 27.1875 -19.910156 25.9375 -21.234375 C 24.695312 -22.566406 22.878906 -23.234375 20.484375 -23.234375 C 18.765625 -23.234375 17.332031 -22.800781 16.1875 -21.9375 C 15.050781 -21.082031 14.238281 -19.941406 13.75 -18.515625 L 5.5625 -18.515625 L 5.5625 -44.6875 L 33.1875 -44.6875 Z M 33.1875 -37.15625 "/></g></g></g><g fill="#ffffff" fill-opacity="1"><g transform="translate(72.490593, 194.388371)"><g><path d="M 2.828125 -7.765625 C 6.390625 -7.429688 9.484375 -7.265625 12.109375 -7.265625 C 13.390625 -7.265625 14.28125 -7.316406 14.78125 -7.421875 C 15.28125 -7.523438 15.617188 -7.757812 15.796875 -8.125 C 15.984375 -8.5 16.078125 -9.140625 16.078125 -10.046875 C 16.078125 -10.898438 15.984375 -11.515625 15.796875 -11.890625 C 15.617188 -12.273438 15.269531 -12.53125 14.75 -12.65625 C 14.238281 -12.78125 13.390625 -12.84375 12.203125 -12.84375 C 9.148438 -12.84375 6.148438 -12.6875 3.203125 -12.375 L 3.203125 -31.4375 L 24.4375 -31.4375 L 24.4375 -23.671875 L 12.203125 -23.671875 L 12.203125 -20.015625 C 13.722656 -20.191406 15.441406 -20.28125 17.359375 -20.28125 C 20.859375 -20.28125 23.300781 -19.472656 24.6875 -17.859375 C 26.070312 -16.242188 26.765625 -13.820312 26.765625 -10.59375 C 26.765625 -7.976562 26.398438 -5.882812 25.671875 -4.3125 C 24.941406 -2.75 23.609375 -1.578125 21.671875 -0.796875 C 19.742188 -0.0234375 17.015625 0.359375 13.484375 0.359375 C 11.953125 0.359375 10.195312 0.265625 8.21875 0.078125 C 6.238281 -0.0976562 4.441406 -0.335938 2.828125 -0.640625 Z M 2.828125 -7.765625 "/></g></g></g></svg>