<svg xmlns="http://www.w3.org/2000/svg" xmlns:xlink="http://www.w3.org/1999/xlink" width="500" zoomAndPan="magnify" viewBox="0 0 375 374.999991" height="500" preserveAspectRatio="xMidYMid meet" version="1.0"><defs><g/><clipPath id="3a3098b372"><path d="M 22.222656 5 L 356 5 L 356 315 L 22.222656 315 Z M 22.222656 5 " clip-rule="nonzero"/></clipPath><clipPath id="9a4f182983"><path d="M 240.683594 321.832031 L 290.011719 321.832031 L 290.011719 371.160156 L 240.683594 371.160156 Z M 240.683594 321.832031 " clip-rule="nonzero"/></clipPath><clipPath id="7eebba6acb"><path d="M 265.347656 321.832031 C 251.726562 321.832031 240.683594 332.875 240.683594 346.496094 C 240.683594 360.117188 251.726562 371.160156 265.347656 371.160156 C 278.96875 371.160156 290.011719 360.117188 290.011719 346.496094 C 290.011719 332.875 278.96875 321.832031 265.347656 321.832031 " clip-rule="nonzero"/></clipPath><clipPath id="3613b4ea70"><path d="M 92.675781 321.832031 L 142 321.832031 L 142 371.160156 L 92.675781 371.160156 Z M 92.675781 321.832031 " clip-rule="nonzero"/></clipPath><clipPath id="ffb6af58e5"><path d="M 117.335938 321.832031 C 103.714844 321.832031 92.675781 332.875 92.675781 346.496094 C 92.675781 360.117188 103.714844 371.160156 117.335938 371.160156 C 130.960938 371.160156 142 360.117188 142 346.496094 C 142 332.875 130.960938 321.832031 117.335938 321.832031 " clip-rule="nonzero"/></clipPath></defs><g clip-path="url(#3a3098b372)"><path fill="#ff0056" d="M 316.074219 51.90625 L 102.585938 51.90625 L 99.363281 36.777344 C 95.496094 18.859375 79.378906 5.878906 61.007812 5.878906 L 38.339844 5.878906 C 29.421875 5.878906 22.222656 13.066406 22.222656 21.972656 C 22.222656 30.769531 29.421875 38.066406 38.339844 38.066406 L 61.007812 38.066406 C 64.230469 38.066406 67.132812 40.320312 67.882812 43.539062 L 109.140625 235.808594 L 97.109375 247.828125 C 85.828125 259.09375 82.496094 275.832031 88.621094 290.53125 C 94.636719 305.230469 108.925781 314.671875 124.828125 314.671875 L 272.988281 314.671875 C 281.90625 314.671875 289.105469 307.484375 289.105469 298.578125 C 289.105469 289.78125 281.90625 282.484375 272.988281 282.484375 L 124.828125 282.484375 C 120.746094 282.484375 119.027344 279.800781 118.382812 278.191406 C 117.738281 276.582031 116.984375 273.472656 119.886719 270.679688 L 133.421875 257.054688 L 282.230469 257.054688 C 299.957031 257.054688 315.535156 245.144531 320.046875 227.976562 L 353.894531 101.15625 C 357.117188 89.355469 354.644531 77.015625 347.125 67.25 C 339.710938 57.488281 328.320312 51.90625 316.074219 51.90625 Z M 316.074219 51.90625 " fill-opacity="1" fill-rule="nonzero"/></g><g clip-path="url(#9a4f182983)"><g clip-path="url(#7eebba6acb)"><path fill="#ff0056" d="M 240.683594 321.832031 L 290.011719 321.832031 L 290.011719 371.160156 L 240.683594 371.160156 Z M 240.683594 321.832031 " fill-opacity="1" fill-rule="nonzero"/></g></g><g clip-path="url(#3613b4ea70)"><g clip-path="url(#ffb6af58e5)"><path fill="#ff0056" d="M 92.675781 321.832031 L 142 321.832031 L 142 371.160156 L 92.675781 371.160156 Z M 92.675781 321.832031 " fill-opacity="1" fill-rule="nonzero"/></g></g><g fill="#ffffff" fill-opacity="1"><g transform="translate(161.523273, 208.992734)"><g><path d="M 10.328125 -28.328125 C 23.328125 -27.109375 34.601562 -26.5 44.15625 -26.5 C 48.820312 -26.5 52.070312 -26.691406 53.90625 -27.078125 C 55.738281 -27.460938 56.988281 -28.320312 57.65625 -29.65625 C 58.320312 -30.988281 58.65625 -33.320312 58.65625 -36.65625 C 58.65625 -39.769531 58.320312 -42.019531 57.65625 -43.40625 C 56.988281 -44.789062 55.707031 -45.707031 53.8125 -46.15625 C 51.925781 -46.601562 48.816406 -46.828125 44.484375 -46.828125 C 33.378906 -46.828125 22.4375 -46.269531 11.65625 -45.15625 L 11.65625 -114.640625 L 89.140625 -114.640625 L 89.140625 -86.3125 L 44.484375 -86.3125 L 44.484375 -72.984375 C 50.035156 -73.648438 56.3125 -73.984375 63.3125 -73.984375 C 76.09375 -73.984375 85.007812 -71.035156 90.0625 -65.140625 C 95.113281 -59.253906 97.640625 -50.425781 97.640625 -38.65625 C 97.640625 -29.101562 96.304688 -21.46875 93.640625 -15.75 C 90.972656 -10.03125 86.113281 -5.753906 79.0625 -2.921875 C 72.007812 -0.0859375 62.039062 1.328125 49.15625 1.328125 C 43.601562 1.328125 37.210938 0.992188 29.984375 0.328125 C 22.765625 -0.335938 16.210938 -1.222656 10.328125 -2.328125 Z M 10.328125 -28.328125 "/></g></g></g></svg>